<?xml version="1.0" encoding="UTF-8"?>
<svg xmlns="http://www.w3.org/2000/svg" xmlns:xlink="http://www.w3.org/1999/xlink" width="100" height="100" viewBox="0 0 100 100" version="1.1">
<path d="M 50.222656 40.773438 L 56.667969 40.773438 C 57.589844 40.773438 58.339844 40.023438 58.339844 39.097656 L 58.339844 32.65625 C 58.339844 31.730469 57.589844 30.980469 56.667969 30.980469 L 50.222656 30.980469 C 49.296875 30.980469 48.546875 31.730469 48.546875 32.65625 L 48.546875 39.097656 C 48.546875 40.023438 49.296875 40.773438 50.222656 40.773438 Z M 51.898438 34.328125 L 54.992188 34.328125 L 54.992188 37.425781 L 51.898438 37.425781 Z M 88.800781 44.773438 L 82.359375 44.773438 C 81.433594 44.773438 80.683594 45.519531 80.683594 46.445312 L 80.683594 52.890625 C 80.683594 53.8125 81.433594 54.5625 82.359375 54.5625 L 88.800781 54.5625 C 89.726562 54.5625 90.476562 53.8125 90.476562 52.890625 L 90.476562 46.445312 C 90.476562 45.519531 89.726562 44.773438 88.800781 44.773438 Z M 87.125 51.214844 L 84.03125 51.214844 L 84.03125 48.121094 L 87.125 48.121094 Z M 95.964844 22.984375 L 4.035156 22.984375 C 1.808594 22.984375 0 24.792969 0 27.015625 L 0 72.984375 C 0 75.207031 1.808594 77.015625 4.035156 77.015625 L 95.964844 77.015625 C 98.191406 77.015625 100 75.207031 100 72.984375 L 100 27.015625 C 100 24.792969 98.191406 22.984375 95.964844 22.984375 Z M 96.652344 72.984375 C 96.652344 73.355469 96.335938 73.667969 95.964844 73.667969 L 4.035156 73.667969 C 3.664062 73.667969 3.347656 73.355469 3.347656 72.984375 L 3.347656 27.015625 C 3.347656 26.644531 3.664062 26.332031 4.035156 26.332031 L 95.964844 26.332031 C 96.335938 26.332031 96.652344 26.644531 96.652344 27.015625 Z M 75.914062 40.773438 L 88.800781 40.773438 C 89.726562 40.773438 90.476562 40.023438 90.476562 39.097656 L 90.476562 32.65625 C 90.476562 31.730469 89.726562 30.980469 88.800781 30.980469 L 75.914062 30.980469 C 74.988281 30.980469 74.238281 31.730469 74.238281 32.65625 L 74.238281 39.097656 C 74.238281 40.023438 74.988281 40.773438 75.914062 40.773438 Z M 77.589844 34.328125 L 87.125 34.328125 L 87.125 37.425781 L 77.589844 37.425781 Z M 63.109375 40.773438 L 69.550781 40.773438 C 70.476562 40.773438 71.226562 40.023438 71.226562 39.097656 L 71.226562 32.65625 C 71.226562 31.730469 70.476562 30.980469 69.550781 30.980469 L 63.109375 30.980469 C 62.183594 30.980469 61.433594 31.730469 61.433594 32.65625 L 61.433594 39.097656 C 61.433594 40.023438 62.183594 40.773438 63.109375 40.773438 Z M 64.78125 34.328125 L 67.878906 34.328125 L 67.878906 37.425781 L 64.78125 37.425781 Z M 56.21875 44.773438 C 55.292969 44.773438 54.542969 45.519531 54.542969 46.445312 L 54.542969 52.890625 C 54.542969 53.8125 55.292969 54.5625 56.21875 54.5625 L 62.660156 54.5625 C 63.585938 54.5625 64.335938 53.8125 64.335938 52.890625 L 64.335938 46.445312 C 64.335938 45.519531 63.585938 44.773438 62.660156 44.773438 Z M 60.988281 51.214844 L 57.890625 51.214844 L 57.890625 48.121094 L 60.988281 48.121094 Z M 11.199219 44.773438 C 10.273438 44.773438 9.523438 45.519531 9.523438 46.445312 L 9.523438 52.890625 C 9.523438 53.8125 10.273438 54.5625 11.199219 54.5625 L 24.085938 54.5625 C 25.011719 54.5625 25.761719 53.8125 25.761719 52.890625 L 25.761719 46.445312 C 25.761719 45.519531 25.011719 44.773438 24.085938 44.773438 Z M 22.410156 51.214844 L 12.875 51.214844 L 12.875 48.121094 L 22.410156 48.121094 Z M 43.332031 44.773438 C 42.40625 44.773438 41.660156 45.519531 41.660156 46.445312 L 41.660156 52.890625 C 41.660156 53.8125 42.40625 54.5625 43.332031 54.5625 L 49.777344 54.5625 C 50.703125 54.5625 51.449219 53.8125 51.449219 52.890625 L 51.449219 46.445312 C 51.449219 45.519531 50.703125 44.773438 49.777344 44.773438 Z M 48.101562 51.214844 L 45.007812 51.214844 L 45.007812 48.121094 L 48.101562 48.121094 Z M 75.546875 58.5625 L 24.453125 58.5625 C 23.527344 58.5625 22.78125 59.3125 22.78125 60.238281 L 22.78125 66.679688 C 22.78125 67.605469 23.527344 68.355469 24.453125 68.355469 L 75.546875 68.355469 C 76.46875 68.355469 77.21875 67.605469 77.21875 66.679688 L 77.21875 60.238281 C 77.21875 59.3125 76.46875 58.5625 75.546875 58.5625 Z M 73.871094 65.007812 L 26.128906 65.007812 L 26.128906 61.910156 L 73.871094 61.910156 Z M 24.453125 40.773438 L 30.898438 40.773438 C 31.820312 40.773438 32.570312 40.023438 32.570312 39.097656 L 32.570312 32.65625 C 32.570312 31.730469 31.820312 30.980469 30.898438 30.980469 L 24.453125 30.980469 C 23.527344 30.980469 22.78125 31.730469 22.78125 32.65625 L 22.78125 39.097656 C 22.78125 40.023438 23.527344 40.773438 24.453125 40.773438 Z M 26.128906 34.328125 L 29.222656 34.328125 L 29.222656 37.425781 L 26.128906 37.425781 Z M 11.199219 40.773438 L 17.640625 40.773438 C 18.566406 40.773438 19.316406 40.023438 19.316406 39.097656 L 19.316406 32.65625 C 19.316406 31.730469 18.566406 30.980469 17.640625 30.980469 L 11.199219 30.980469 C 10.273438 30.980469 9.523438 31.730469 9.523438 32.65625 L 9.523438 39.097656 C 9.523438 40.023438 10.273438 40.773438 11.199219 40.773438 Z M 12.871094 34.328125 L 15.96875 34.328125 L 15.96875 37.425781 L 12.871094 37.425781 Z M 17.640625 58.5625 L 11.199219 58.5625 C 10.273438 58.5625 9.523438 59.3125 9.523438 60.238281 L 9.523438 66.679688 C 9.523438 67.605469 10.273438 68.355469 11.199219 68.355469 L 17.640625 68.355469 C 18.566406 68.355469 19.316406 67.605469 19.316406 66.679688 L 19.316406 60.238281 C 19.316406 59.3125 18.566406 58.5625 17.640625 58.5625 Z M 15.96875 65.007812 L 12.875 65.007812 L 12.875 61.910156 L 15.96875 61.910156 Z M 75.546875 44.773438 L 69.101562 44.773438 C 68.179688 44.773438 67.429688 45.519531 67.429688 46.445312 L 67.429688 52.890625 C 67.429688 53.8125 68.179688 54.5625 69.101562 54.5625 L 75.546875 54.5625 C 76.46875 54.5625 77.21875 53.8125 77.21875 52.890625 L 77.21875 46.445312 C 77.21875 45.519531 76.46875 44.773438 75.546875 44.773438 Z M 73.871094 51.214844 L 70.777344 51.214844 L 70.777344 48.121094 L 73.871094 48.121094 Z M 88.800781 58.5625 L 82.359375 58.5625 C 81.433594 58.5625 80.683594 59.3125 80.683594 60.238281 L 80.683594 66.679688 C 80.683594 67.605469 81.433594 68.355469 82.359375 68.355469 L 88.800781 68.355469 C 89.726562 68.355469 90.476562 67.605469 90.476562 66.679688 L 90.476562 60.238281 C 90.476562 59.3125 89.726562 58.5625 88.800781 58.5625 Z M 87.125 65.007812 L 84.03125 65.007812 L 84.03125 61.910156 L 87.125 61.910156 Z M 37.339844 40.773438 L 43.78125 40.773438 C 44.707031 40.773438 45.457031 40.023438 45.457031 39.097656 L 45.457031 32.65625 C 45.457031 31.730469 44.707031 30.980469 43.78125 30.980469 L 37.339844 30.980469 C 36.414062 30.980469 35.664062 31.730469 35.664062 32.65625 L 35.664062 39.097656 C 35.664062 40.023438 36.414062 40.773438 37.339844 40.773438 Z M 39.011719 34.328125 L 42.109375 34.328125 L 42.109375 37.425781 L 39.011719 37.425781 Z M 30.449219 44.773438 C 29.523438 44.773438 28.773438 45.519531 28.773438 46.445312 L 28.773438 52.890625 C 28.773438 53.8125 29.523438 54.5625 30.449219 54.5625 L 36.890625 54.5625 C 37.816406 54.5625 38.566406 53.8125 38.566406 52.890625 L 38.566406 46.445312 C 38.566406 45.519531 37.816406 44.773438 36.890625 44.773438 Z M 35.21875 51.214844 L 32.121094 51.214844 L 32.121094 48.121094 L 35.21875 48.121094 Z M 35.21875 51.214844 "/>
</svg>
